<svg width="512" height="456" fill="none" xmlns="http://www.w3.org/2000/svg"><path d="M256 455.516a30.024 30.024 0 0 1-19.793-7.438c-20.684-18.086-40.625-35.082-58.219-50.074l-.09-.078c-51.582-43.957-96.125-81.918-127.117-119.313C16.137 236.809 0 197.172 0 153.871c0-42.07 14.426-80.883 40.617-109.293C67.121 15.832 103.488 0 143.031 0c29.555 0 56.621 9.344 80.446 27.77C235.5 37.07 246.398 48.453 256 61.73c9.605-13.277 20.5-24.66 32.527-33.96C312.352 9.344 339.418 0 368.973 0c39.539 0 75.91 15.832 102.414 44.578C497.578 72.988 512 111.801 512 153.871c0 43.301-16.133 82.938-50.777 124.738-30.993 37.399-75.532 75.356-127.106 119.309-17.625 15.016-37.597 32.039-58.328 50.168a30.047 30.047 0 0 1-19.789 7.43z" fill="red"/></svg>
